<svg xmlns="http://www.w3.org/2000/svg" xmlns:xlink="http://www.w3.org/1999/xlink" width="600" height="360"><g transform="translate(-220 -140)"><path d="M417.38 240H502v60h-84.62z" fill="none"/><use xlink:href="#a" transform="matrix(1,0,0,1,417.38055937020243,240) translate(12.574999999999996 33.6)"/><path d="M368 160c17.67 0 32 17.9 32 40s-14.33 40-32 40h-96c-17.67 0-32-17.9-32-40s14.33-40 32-40z" stroke="#000" stroke-width="2" fill="#fff"/><use xlink:href="#b" transform="matrix(1,0,0,1,245,165) translate(42.99382716049383 39.44444444444444)"/><path d="M768 160c17.67 0 32 17.9 32 40s-14.33 40-32 40h-96c-17.67 0-32-17.9-32-40s14.33-40 32-40z" stroke="#000" stroke-width="2" fill="#fff"/><use xlink:href="#c" transform="matrix(1,0,0,1,645,165) translate(49.907407407407405 39.44444444444444)"/><path d="M568 400c17.67 0 32 17.9 32 40s-14.33 40-32 40h-96c-17.67 0-32-17.9-32-40s14.33-40 32-40z" stroke="#000" stroke-width="2" fill="#fff"/><use xlink:href="#d" transform="matrix(1,0,0,1,445,405) translate(22.067901234567906 39.44444444444444)"/><path d="M441.6 424.24l-8.38-2.94-7.84-3.1-7.35-3.3-6.9-3.43-6.5-3.58-6.14-3.74-5.83-3.87-5.52-4.03-5.24-4.17-5-4.32-4.75-4.5-4.55-4.64-4.34-4.84-4.16-5.03-3.97-5.25-3.8-5.48-3.6-5.72-3.47-6-3.28-6.3-3.1-6.6-2.92-7-2.73-7.37-2.53-7.82-2.3-8.3-2.06-8.83-1.8-9.43-1.46-10.08-1.12-10.83-.72-11.63L320 240" stroke="#000" stroke-width="2" fill="none"/><path d="M442.86 423.63l-.6 1.9-1-.35.7-1.88zM325.03 254.13l-9.27.26L320 240z"/><path d="M326.44 255.1l-12.02.33 4.54-15.43h2.1zm-9.33-1.75l6.53-.18-3.54-9.94z"/><path d="M383.36 236.3l46.4 63.35 7.15 11.2 5.38 9.26 4.4 8.37 3.74 7.95 3.3 7.82 2.95 7.9 2.68 8.22 2.43 8.68 2.2 9.4 2 10.35 1.6 10.6" stroke="#000" stroke-width="2" fill="none"/><path d="M384.17 235.7l-1.6 1.18-.66-.9.7-.38.98-.7zM467.57 399.4l-6.85-13.34 9.15-1.48z"/><path d="M468.45 400.3l-1.44.2-7.8-15.2 11.87-1.93zm-6.22-13.47l4.83 9.38 1.6-10.4z"/><path d="M240 320h84.62v60H240z" fill="none"/><use xlink:href="#e" transform="matrix(1,0,0,1,240,320) translate(9.024999999999999 33.6)"/><path d="M598.68 424.96l7.34-2.06 6.9-2.25 6.55-2.44 6.2-2.6 5.9-2.77 5.6-2.94 5.37-3.12 5.13-3.27 4.93-3.42 4.75-3.6 4.56-3.8 4.4-3.96 4.27-4.17 4.1-4.4 3.98-4.6 3.84-4.86 3.7-5.14 3.6-5.4 3.46-5.74 3.33-6.08 3.2-6.45 3.03-6.87 2.9-7.32 2.7-7.8 2.52-8.38 2.3-8.97 2.03-9.64 1.74-10.34 1.4-11.15 1-11.98.52-12.9.06-6.52" stroke="#000" stroke-width="2" fill="none"/><path d="M598.97 425.92l-1 .3-.4-1.55-.15-.37.97-.3zM724.24 254.4l-9.26-.27L720 240z"/><path d="M725.6 255.42l-12.03-.32 5.37-15.1h2.1zm-9.22-2.25l6.5.18-2.97-10.12z"/><path d="M651.14 231.7l-9.64 9.5-8 8.55-6.8 7.92-5.9 7.5-5.23 7.26-4.72 7.15-4.32 7.18-4.02 7.36-3.78 7.72-3.66 8.3-3.6 9.2-3.68 10.67-3.95 13.3-4.8 19.02-7.67 36.9" stroke="#000" stroke-width="2" fill="none"/><path d="M652.54 231.72l-.7.7-1.4-1.43.73-.74zM578.8 386.2l-7.44 13-1.63-14.9z"/><path d="M580.36 385.5l-8.48 14.82-.64-.12-.78-.05-1.87-17.1zm-8.34 10.54l5.24-9.15-6.38-1.34z"/><path d="M715.38 320H800v60h-84.62z" fill="none"/><use xlink:href="#e" transform="matrix(1,0,0,1,715.3805593702025,320) translate(9.024999999999999 33.6)"/><path d="M522.38 240H607v60h-84.62z" fill="none"/><use xlink:href="#f" transform="matrix(1,0,0,1,522.3805593702025,240) translate(23.549999999999997 22.799999999999997)"/><use xlink:href="#g" transform="matrix(1,0,0,1,522.3805593702025,240) translate(17.525 44.4)"/><defs><path d="M190 0L58-211 59 0H30v-248h39L202-35l-2-213h31V0h-41" id="h"/><path d="M100-194c62-1 85 37 85 99 1 63-27 99-86 99S16-35 15-95c0-66 28-99 85-99zM99-20c44 1 53-31 53-75 0-43-8-75-51-75s-53 32-53 75 10 74 51 75" id="i"/><path d="M59-47c-2 24 18 29 38 22v24C64 9 27 4 27-40v-127H5v-23h24l9-43h21v43h35v23H59v120" id="j"/><path d="M24-231v-30h32v30H24zM24 0v-190h32V0H24" id="k"/><path d="M101-234c-31-9-42 10-38 44h38v23H63V0H32v-167H5v-23h27c-7-52 17-82 69-68v24" id="l"/><path d="M100-194c63 0 86 42 84 106H49c0 40 14 67 53 68 26 1 43-12 49-29l28 8c-11 28-37 45-77 45C44 4 14-33 15-96c1-61 26-98 85-98zm52 81c6-60-76-77-97-28-3 7-6 17-6 28h103" id="m"/><path d="M135-143c-3-34-86-38-87 0 15 53 115 12 119 90S17 21 10-45l28-5c4 36 97 45 98 0-10-56-113-15-118-90-4-57 82-63 122-42 12 7 21 19 24 35" id="n"/><g id="a"><use transform="matrix(0.05,0,0,0.05,0,0)" xlink:href="#h"/><use transform="matrix(0.05,0,0,0.05,12.950000000000001,0)" xlink:href="#i"/><use transform="matrix(0.05,0,0,0.05,22.950000000000003,0)" xlink:href="#j"/><use transform="matrix(0.05,0,0,0.05,27.950000000000003,0)" xlink:href="#k"/><use transform="matrix(0.05,0,0,0.05,31.900000000000002,0)" xlink:href="#l"/><use transform="matrix(0.05,0,0,0.05,36.900000000000006,0)" xlink:href="#k"/><use transform="matrix(0.05,0,0,0.05,40.85000000000001,0)" xlink:href="#m"/><use transform="matrix(0.05,0,0,0.05,50.85000000000001,0)" xlink:href="#n"/></g><path d="M230 0l2-204L168 0h-37L68-204 70 0H24v-248h70l56 185 57-185h69V0h-46" id="o"/><path d="M110-194c64 0 96 36 96 99 0 64-35 99-97 99-61 0-95-36-95-99 0-62 34-99 96-99zm-1 164c35 0 45-28 45-65 0-40-10-65-43-65-34 0-45 26-45 65 0 36 10 65 43 65" id="p"/><path d="M88-194c31-1 46 15 58 34l-1-101h50l1 261h-48c-2-10 0-23-3-31C134-8 116 4 84 4 32 4 16-41 15-95c0-56 19-97 73-99zm17 164c33 0 40-30 41-66 1-37-9-64-41-64s-38 30-39 65c0 43 13 65 39 65" id="q"/><path d="M185-48c-13 30-37 53-82 52C43 2 14-33 14-96s30-98 90-98c62 0 83 45 84 108H66c0 31 8 55 39 56 18 0 30-7 34-22zm-45-69c5-46-57-63-70-21-2 6-4 13-4 21h74" id="r"/><path d="M25 0v-261h50V0H25" id="s"/><g id="b"><use transform="matrix(0.06172839506172839,0,0,0.06172839506172839,0,0)" xlink:href="#o"/><use transform="matrix(0.06172839506172839,0,0,0.06172839506172839,18.456790123456788,0)" xlink:href="#p"/><use transform="matrix(0.06172839506172839,0,0,0.06172839506172839,31.9753086419753,0)" xlink:href="#q"/><use transform="matrix(0.06172839506172839,0,0,0.06172839506172839,45.49382716049382,0)" xlink:href="#r"/><use transform="matrix(0.06172839506172839,0,0,0.06172839506172839,57.8395061728395,0)" xlink:href="#s"/></g><path d="M147 0H94L2-248h55l64 206c17-72 42-137 63-206h54" id="t"/><path d="M25-224v-37h50v37H25zM25 0v-190h50V0H25" id="u"/><path d="M231 0h-52l-39-155L100 0H48L-1-190h46L77-45c9-52 24-97 36-145h53l37 145 32-145h46" id="v"/><g id="c"><use transform="matrix(0.06172839506172839,0,0,0.06172839506172839,0,0)" xlink:href="#t"/><use transform="matrix(0.06172839506172839,0,0,0.06172839506172839,14.382716049382715,0)" xlink:href="#u"/><use transform="matrix(0.06172839506172839,0,0,0.06172839506172839,20.555555555555554,0)" xlink:href="#r"/><use transform="matrix(0.06172839506172839,0,0,0.06172839506172839,32.901234567901234,0)" xlink:href="#v"/></g><path d="M67-125c0 53 21 87 73 88 37 1 54-22 65-47l45 17C233-25 199 4 140 4 58 4 20-42 15-125 8-235 124-281 211-232c18 10 29 29 36 50l-46 12c-8-25-30-41-62-41-52 0-71 34-72 86" id="w"/><path d="M135-194c87-1 58 113 63 194h-50c-7-57 23-157-34-157-59 0-34 97-39 157H25l-1-190h47c2 12-1 28 3 38 12-26 28-41 61-42" id="x"/><path d="M115-3C79 11 28 4 28-45v-112H4v-33h27l15-45h31v45h36v33H77v99c-1 23 16 31 38 25v30" id="y"/><path d="M135-150c-39-12-60 13-60 57V0H25l-1-190h47c2 13-1 29 3 40 6-28 27-53 61-41v41" id="z"/><g id="d"><use transform="matrix(0.06172839506172839,0,0,0.06172839506172839,0,0)" xlink:href="#w"/><use transform="matrix(0.06172839506172839,0,0,0.06172839506172839,15.987654320987653,0)" xlink:href="#p"/><use transform="matrix(0.06172839506172839,0,0,0.06172839506172839,29.50617283950617,0)" xlink:href="#x"/><use transform="matrix(0.06172839506172839,0,0,0.06172839506172839,43.02469135802469,0)" xlink:href="#y"/><use transform="matrix(0.06172839506172839,0,0,0.06172839506172839,50.37037037037037,0)" xlink:href="#z"/><use transform="matrix(0.06172839506172839,0,0,0.06172839506172839,59.01234567901234,0)" xlink:href="#p"/><use transform="matrix(0.06172839506172839,0,0,0.06172839506172839,72.53086419753086,0)" xlink:href="#s"/><use transform="matrix(0.06172839506172839,0,0,0.06172839506172839,78.7037037037037,0)" xlink:href="#s"/><use transform="matrix(0.06172839506172839,0,0,0.06172839506172839,84.87654320987653,0)" xlink:href="#r"/><use transform="matrix(0.06172839506172839,0,0,0.06172839506172839,97.22222222222221,0)" xlink:href="#z"/></g><path d="M232-93c-1 65-40 97-104 97C67 4 28-28 28-90v-158h33c8 89-33 224 67 224 102 0 64-133 71-224h33v155" id="A"/><path d="M115-194c55 1 70 41 70 98S169 2 115 4C84 4 66-9 55-30l1 105H24l-1-265h31l2 30c10-21 28-34 59-34zm-8 174c40 0 45-34 45-75s-6-73-45-74c-42 0-51 32-51 76 0 43 10 73 51 73" id="B"/><path d="M85-194c31 0 48 13 60 33l-1-100h32l1 261h-30c-2-10 0-23-3-31C134-8 116 4 85 4 32 4 16-35 15-94c0-66 23-100 70-100zm9 24c-40 0-46 34-46 75 0 40 6 74 45 74 42 0 51-32 51-76 0-42-9-74-50-73" id="C"/><path d="M141-36C126-15 110 5 73 4 37 3 15-17 15-53c-1-64 63-63 125-63 3-35-9-54-41-54-24 1-41 7-42 31l-33-3c5-37 33-52 76-52 45 0 72 20 72 64v82c-1 20 7 32 28 27v20c-31 9-61-2-59-35zM48-53c0 20 12 33 32 33 41-3 63-29 60-74-43 2-92-5-92 41" id="D"/><g id="e"><use transform="matrix(0.05,0,0,0.05,0,0)" xlink:href="#A"/><use transform="matrix(0.05,0,0,0.05,12.950000000000001,0)" xlink:href="#B"/><use transform="matrix(0.05,0,0,0.05,22.950000000000003,0)" xlink:href="#C"/><use transform="matrix(0.05,0,0,0.05,32.95,0)" xlink:href="#D"/><use transform="matrix(0.05,0,0,0.05,42.95,0)" xlink:href="#j"/><use transform="matrix(0.05,0,0,0.05,47.95,0)" xlink:href="#m"/><use transform="matrix(0.05,0,0,0.05,57.95,0)" xlink:href="#n"/></g><path d="M114-163C36-179 61-72 57 0H25l-1-190h30c1 12-1 29 2 39 6-27 23-49 58-41v29" id="E"/><g id="f"><use transform="matrix(0.05,0,0,0.05,0,0)" xlink:href="#A"/><use transform="matrix(0.05,0,0,0.05,12.950000000000001,0)" xlink:href="#n"/><use transform="matrix(0.05,0,0,0.05,21.950000000000003,0)" xlink:href="#m"/><use transform="matrix(0.05,0,0,0.05,31.950000000000003,0)" xlink:href="#E"/></g><path d="M205 0l-28-72H64L36 0H1l101-248h38L239 0h-34zm-38-99l-47-123c-12 45-31 82-46 123h93" id="F"/><path d="M96-169c-40 0-48 33-48 73s9 75 48 75c24 0 41-14 43-38l32 2c-6 37-31 61-74 61-59 0-76-41-82-99-10-93 101-131 147-64 4 7 5 14 7 22l-32 3c-4-21-16-35-41-35" id="G"/><path d="M117-194c89-4 53 116 60 194h-32v-121c0-31-8-49-39-48C34-167 62-67 57 0H25l-1-190h30c1 10-1 24 2 32 11-22 29-35 61-36" id="H"/><g id="g"><use transform="matrix(0.05,0,0,0.05,0,0)" xlink:href="#F"/><use transform="matrix(0.05,0,0,0.05,12,0)" xlink:href="#G"/><use transform="matrix(0.05,0,0,0.05,21,0)" xlink:href="#j"/><use transform="matrix(0.05,0,0,0.05,26,0)" xlink:href="#k"/><use transform="matrix(0.05,0,0,0.05,29.950000000000003,0)" xlink:href="#i"/><use transform="matrix(0.05,0,0,0.05,39.95,0)" xlink:href="#H"/></g></defs></g></svg>